<?xml version="1.0" encoding="UTF-8"?>
<svg xmlns="http://www.w3.org/2000/svg" style="display: none;">
    <!--hamburguer icon-->
    <symbol id="hamburger-icon" viewBox="0 0 24 24">
        <title>Icon hamburger menu</title>
        <g stroke="none" stroke-width="1" fill="none" fill-rule="evenodd">
            <rect id="bound" x="0" y="0" width="24" height="24"></rect>
            <rect id="Rectangle-20" fill="currentcolor" x="4" y="5" width="16" height="3" rx="1.5"></rect>
            <path d="M5.5,15 L18.5,15 C19.3284271,15 20,15.6715729 20,16.5 C20,17.3284271 19.3284271,18 18.5,18 L5.5,18 C4.67157288,18 4,17.3284271 4,16.5 C4,15.6715729 4.67157288,15 5.5,15 Z M5.5,10 L18.5,10 C19.3284271,10 20,10.6715729 20,11.5 C20,12.3284271 19.3284271,13 18.5,13 L5.5,13 C4.67157288,13 4,12.3284271 4,11.5 C4,10.6715729 4.67157288,10 5.5,10 Z" fill="currentcolor"></path>
        </g>
    </symbol>
    <!-- close icon -->
    <symbol id="close-icon" viewBox="0 0 24 24">        
        <g stroke="none" stroke-width="1" fill="currentcolor" fill-rule="evenodd">
            <g transform="translate(12.000000, 12.000000) rotate(-45.000000) translate(-12.000000, -12.000000) translate(4.000000, 4.000000)" fill="currentcolor">
                <rect x="0" y="7" width="16" height="2" rx="1" fill="currentcolor" ></rect>
                <rect transform="translate(8.000000, 8.000000) rotate(-270.000000) translate(-8.000000, -8.000000) " x="0" y="7" width="16" height="2" rx="1" fill="currentcolor"></rect>
            </g>
        </g>
    </symbol>

    <!--Dropdown icon-->
    <symbol id="angle-down" viewBox="0 0 24 24" fill="currentcolor">
        <g stroke="none" stroke-width="1" fill="none" fill-rule="evenodd">
            <polygon id="Shape" points="0 0 24 0 24 24 0 24" ></polygon>
            <path d="M6.70710678,15.7071068 C6.31658249,16.0976311 5.68341751,16.0976311 5.29289322,15.7071068 C4.90236893,15.3165825 4.90236893,14.6834175 5.29289322,14.2928932 L11.2928932,8.29289322 C11.6714722,7.91431428 12.2810586,7.90106866 12.6757246,8.26284586 L18.6757246,13.7628459 C19.0828436,14.1360383 19.1103465,14.7686056 18.7371541,15.1757246 C18.3639617,15.5828436 17.7313944,15.6103465 17.3242754,15.2371541 L12.0300757,10.3841378 L6.70710678,15.7071068 Z" id="Path-94" fill="currentcolor" fill-rule="nonzero" transform="translate(12.000003, 11.999999) rotate(-180.000000) translate(-12.000003, -11.999999) "></path>
        </g>
    </symbol>

    <!-- Question icon -->
    <symbol id="question" viewBox="0 0 438.533 438.533" fill="currentcolor">
        <g>
            <path d="M409.133,109.203c-19.608-33.592-46.205-60.189-79.798-79.796C295.736,9.801,259.058,0,219.273,0
		c-39.781,0-76.47,9.801-110.063,29.407c-33.595,19.604-60.192,46.201-79.8,79.796C9.801,142.8,0,179.489,0,219.267
		c0,39.78,9.804,76.463,29.407,110.062c19.607,33.592,46.204,60.189,79.799,79.798c33.597,19.605,70.283,29.407,110.063,29.407
		s76.47-9.802,110.065-29.407c33.593-19.602,60.189-46.206,79.795-79.798c19.603-33.596,29.403-70.284,29.403-110.062
		C438.533,179.485,428.732,142.795,409.133,109.203z M255.82,356.309c0,2.662-0.862,4.853-2.573,6.563
		c-1.704,1.711-3.895,2.567-6.557,2.567h-54.823c-2.664,0-4.854-0.856-6.567-2.567c-1.714-1.711-2.57-3.901-2.57-6.563v-54.823
		c0-2.662,0.855-4.853,2.57-6.563c1.713-1.708,3.903-2.563,6.567-2.563h54.823c2.662,0,4.853,0.855,6.557,2.563
		c1.711,1.711,2.573,3.901,2.573,6.563V356.309z M325.338,187.574c-2.382,7.043-5.044,12.804-7.994,17.275
		c-2.949,4.473-7.187,9.042-12.709,13.703c-5.51,4.663-9.891,7.996-13.135,9.998c-3.23,1.995-7.898,4.713-13.982,8.135
		c-6.283,3.613-11.465,8.326-15.555,14.134c-4.093,5.804-6.139,10.513-6.139,14.126c0,2.67-0.862,4.859-2.574,6.571
		c-1.707,1.711-3.897,2.566-6.56,2.566h-54.82c-2.664,0-4.854-0.855-6.567-2.566c-1.715-1.712-2.568-3.901-2.568-6.571v-10.279
		c0-12.752,4.993-24.701,14.987-35.832c9.994-11.136,20.986-19.368,32.979-24.698c9.13-4.186,15.604-8.47,19.41-12.847
		c3.812-4.377,5.715-10.188,5.715-17.417c0-6.283-3.572-11.897-10.711-16.849c-7.139-4.947-15.27-7.421-24.409-7.421
		c-9.9,0-18.082,2.285-24.555,6.855c-6.283,4.565-14.465,13.322-24.554,26.263c-1.713,2.286-4.093,3.431-7.139,3.431
		c-2.284,0-4.093-0.57-5.424-1.709L121.35,145.89c-4.377-3.427-5.138-7.422-2.286-11.991
		c24.366-40.542,59.672-60.813,105.922-60.813c16.563,0,32.744,3.903,48.541,11.708c15.796,7.801,28.979,18.842,39.546,33.119
		c10.554,14.272,15.845,29.787,15.845,46.537C328.904,172.824,327.71,180.529,325.338,187.574z"/>
        </g>
    </symbol>

    <!-- Check icon -->
    <symbol id="check" viewBox="0 0 20 20" fill="currentcolor">
        <g>
            <path d="M12,2 C6.48,2 2,6.48 2,12 C2,17.52 6.48,22 12,22 C17.52,22 22,17.52 22,12 C22,6.48 17.52,2 12,2 Z M9.29,16.29 L5.7,12.7 C5.31,12.31 5.31,11.68 5.7,11.29 C6.09,10.9 6.72,10.9 7.11,11.29 L10,14.17 L16.88,7.29 C17.27,6.9 17.9,6.9 18.29,7.29 C18.68,7.68 18.68,8.31 18.29,8.7 L10.7,16.29 C10.32,16.68 9.68,16.68 9.29,16.29 Z"></path>
        </g>
    </symbol>

    <!-- Dolar Bill icon -->
    <symbol id="bill" viewBox="0 0 45.868 45.869" fill="currentcolor">
        <g>
            <path d="M22.923,14.434c-4.697,0-8.503,3.807-8.503,8.503c0,4.695,3.807,8.504,8.503,8.504c4.696,0,8.503-3.809,8.503-8.504
			C31.426,18.24,27.62,14.434,22.923,14.434z M23.396,26.724v0.984c0,0.152-0.078,0.232-0.231,0.232h-0.656
			c-0.154,0-0.29-0.08-0.29-0.232v-0.896c-0.589-0.027-1.208-0.156-1.668-0.332c-0.25-0.096-0.386-0.363-0.319-0.621l0.108-0.418
			c0.038-0.146,0.136-0.268,0.27-0.336c0.134-0.068,0.291-0.076,0.431-0.022c0.439,0.17,0.958,0.293,1.512,0.293
			c0.706,0,1.188-0.272,1.188-0.767c0-0.472-0.396-0.769-1.312-1.078c-1.325-0.444-2.223-1.063-2.223-2.265
			c0-1.089,0.75-1.943,2.097-2.203v-0.897c0-0.153,0.114-0.322,0.268-0.322h0.656c0.154,0,0.254,0.169,0.254,0.322v0.811
			c0.59,0.025,0.998,0.11,1.347,0.224c0.264,0.086,0.422,0.361,0.353,0.63l-0.093,0.373c-0.037,0.143-0.129,0.263-0.258,0.332
			c-0.129,0.07-0.281,0.082-0.42,0.034c-0.316-0.108-0.728-0.206-1.25-0.206c-0.805,0-1.065,0.347-1.065,0.693
			c0,0.408,0.434,0.668,1.486,1.063c1.473,0.521,2.044,1.2,2.044,2.315C25.623,25.537,24.828,26.478,23.396,26.724z"/>
		<path d="M40.4,8.753H7.665H6.78H5.446C2.434,8.753,0,11.229,0,14.241v17.392c0,3.013,2.434,5.481,5.446,5.481H40.4
			c3.012,0,5.468-2.471,5.468-5.481V14.241C45.868,11.229,43.413,8.753,40.4,8.753z M38.182,26.595
			c-1.689,0-3.086,1.383-3.086,3.072v3.492H10.688v-3.492c0-1.689-1.333-3.072-3.024-3.072H3.872v-7.07h3.793
			c1.691,0,3.024-1.374,3.024-3.065v-3.751h24.407v3.751c0,1.691,1.396,3.065,3.086,3.065h3.731v7.07H38.182z"/>
        </g>
    </symbol>

    <!-- Table icon -->
    <symbol id="table" viewBox="0 0 512 512" fill="currentcolor">
        <rect x="185.18" y="169.96" width="141.82" height="333.87"/>
        <path d="m460.27,8.36H51.92c-24.05,0-43.55,19.5-43.55,43.55v83.04h495.46V51.92c0-24.05-19.5-43.55-43.55-43.55Z"/>
        <path d="m8.36,460.27c0,24.05,19.5,43.55,43.55,43.55h98.27V169.96H8.36v290.32Z"/>
        <path d="m362.01,503.83h98.27c24.05,0,43.55-19.5,43.55-43.55V169.96h-141.82v333.87Z"/>
    </symbol>

    <!-- Search icon -->
    <symbol id="search"  viewBox="-1 0 19 19" fill="currentcolor">
        <path d="M16.417 9.583A7.917 7.917 0 1 1 8.5 1.666a7.917 7.917 0 0 1 7.917 7.917zm-3.297 3.103-2.424-2.424a3.978 3.978 0 1 0-1.119 1.12l2.424 2.423a.791.791 0 1 0 1.119-1.12zM9.633 5.808a3.189 3.189 0 1 1-2.255-.934 3.167 3.167 0 0 1 2.255.934z"/>
    </symbol>

    <!-- Add icon -->
    <symbol id="add" viewBox="0 0 27.963 27.963" fill="currentcolor">
        <path d="M13.98,0C6.259,0,0,6.26,0,13.982s6.259,13.981,13.98,13.981c7.725,0,13.983-6.26,13.983-13.981
			C27.963,6.26,21.705,0,13.98,0z M21.102,16.059h-4.939v5.042h-4.299v-5.042H6.862V11.76h5.001v-4.9h4.299v4.9h4.939v4.299H21.102z"/>
    </symbol>
</svg>
